<svg width="39" height="34" viewBox="0 0 39 34" fill="none" xmlns="http://www.w3.org/2000/svg">
<path d="M0.968 33.888C0.968 31.84 0.968 29.792 0.968 27.744C0.968 25.6107 0.968 23.52 0.968 21.472C0.968 14.9013 1.90667 9.73866 3.784 5.98399C5.66133 2.22933 8.94667 0.266663 13.64 0.095993L16.072 5.088C13.4267 5.34399 11.592 6.62399 10.568 8.92799C9.62933 11.1467 9.16 14.688 9.16 19.552H15.944V33.888H0.968ZM23.496 33.888C23.496 31.84 23.496 29.792 23.496 27.744C23.496 25.6107 23.496 23.52 23.496 21.472C23.496 14.9013 24.4347 9.73866 26.312 5.98399C28.1893 2.22933 31.4747 0.266663 36.168 0.095993L38.6 5.088C35.9547 5.34399 34.12 6.62399 33.096 8.92799C32.1573 11.1467 31.688 14.688 31.688 19.552H38.472V33.888H23.496Z" fill="#917239"/>
</svg>
